<svg width="123" height="41" viewBox="0 0 123 41" fill="none" xmlns="http://www.w3.org/2000/svg">
<path d="M37.258 31H42.784V0.0399995H37.258V31ZM47.7334 8.716C48.6214 8.716 49.3834 8.392 50.0194 7.744C50.6674 7.096 50.9914 6.322 50.9914 5.422C50.9914 4.534 50.6674 3.772 50.0194 3.136C49.3834 2.488 48.6214 2.164 47.7334 2.164C46.8214 2.164 46.0414 2.488 45.3934 3.136C44.7574 3.772 44.4394 4.534 44.4394 5.422C44.4394 6.334 44.7574 7.114 45.3934 7.762C46.0414 8.398 46.8214 8.716 47.7334 8.716ZM44.1334 40.9C46.1254 40.9 47.6794 40.294 48.7954 39.082C49.9234 37.87 50.4874 36.214 50.4874 34.114V12.568H44.9614V33.142C44.9614 35.014 44.3074 35.95 42.9994 35.95C42.3874 35.95 41.7994 35.752 41.2354 35.356L39.5434 39.802C40.0714 40.138 40.7674 40.402 41.6314 40.594C42.4954 40.798 43.3294 40.9 44.1334 40.9ZM61.736 31.576C65.108 31.576 67.532 30.916 69.008 29.596C70.496 28.264 71.24 26.08 71.24 23.044V12.568H65.714V21.748C65.714 23.692 65.414 25.066 64.814 25.87C64.226 26.674 63.2 27.076 61.736 27.076C60.284 27.076 59.258 26.674 58.658 25.87C58.058 25.066 57.758 23.692 57.758 21.748V12.568H52.232V23.044C52.232 26.08 52.976 28.264 54.464 29.596C55.952 30.916 58.376 31.576 61.736 31.576ZM80.6214 31.576C81.9054 31.576 83.1054 31.312 84.2214 30.784C85.3374 30.256 86.3034 29.518 87.1194 28.57V31H92.6454V0.0399995H87.1194V14.818C86.3874 13.93 85.4634 13.24 84.3474 12.748C83.2434 12.244 82.0494 11.992 80.7654 11.992C78.9894 11.992 77.4054 12.418 76.0134 13.27C74.6214 14.122 73.5294 15.286 72.7374 16.762C71.9454 18.238 71.5494 19.912 71.5494 21.784C71.5494 23.692 71.9574 25.384 72.7734 26.86C73.5894 28.336 74.6814 29.494 76.0494 30.334C77.4294 31.162 78.9534 31.576 80.6214 31.576ZM82.2774 26.878C80.8374 26.878 79.6554 26.404 78.7314 25.456C77.8194 24.496 77.3634 23.284 77.3634 21.82C77.3634 20.332 77.8314 19.108 78.7674 18.148C79.7154 17.176 80.8974 16.69 82.3134 16.69C83.7294 16.69 84.9054 17.176 85.8414 18.148C86.7774 19.108 87.2454 20.332 87.2454 21.82C87.2454 23.284 86.7774 24.496 85.8414 25.456C84.9174 26.404 83.7294 26.878 82.2774 26.878ZM97.5797 8.734C98.4797 8.734 99.2477 8.41 99.8837 7.762C100.52 7.114 100.838 6.34 100.838 5.44C100.838 4.54 100.52 3.772 99.8837 3.136C99.2477 2.5 98.4797 2.182 97.5797 2.182C96.6677 2.182 95.8877 2.5 95.2397 3.136C94.6037 3.772 94.2857 4.54 94.2857 5.44C94.2857 6.352 94.6037 7.132 95.2397 7.78C95.8877 8.416 96.6677 8.734 97.5797 8.734ZM94.8077 31H100.334V12.568H94.8077V31ZM111.709 31.576C113.749 31.576 115.585 31.162 117.217 30.334C118.849 29.494 120.139 28.342 121.087 26.878C122.047 25.402 122.527 23.704 122.527 21.784C122.527 19.864 122.047 18.172 121.087 16.708C120.139 15.232 118.849 14.08 117.217 13.252C115.585 12.412 113.749 11.992 111.709 11.992C109.681 11.992 107.845 12.412 106.201 13.252C104.569 14.08 103.273 15.232 102.313 16.708C101.365 18.172 100.891 19.864 100.891 21.784C100.891 23.704 101.365 25.402 102.313 26.878C103.273 28.342 104.569 29.494 106.201 30.334C107.845 31.162 109.681 31.576 111.709 31.576ZM111.709 26.86C110.773 26.86 109.921 26.644 109.153 26.212C108.397 25.78 107.797 25.186 107.353 24.43C106.909 23.662 106.687 22.78 106.687 21.784C106.687 20.788 106.909 19.912 107.353 19.156C107.797 18.388 108.397 17.788 109.153 17.356C109.921 16.924 110.773 16.708 111.709 16.708C112.657 16.708 113.509 16.924 114.265 17.356C115.033 17.788 115.639 18.388 116.083 19.156C116.539 19.912 116.767 20.788 116.767 21.784C116.767 22.78 116.539 23.662 116.083 24.43C115.639 25.186 115.033 25.78 114.265 26.212C113.509 26.644 112.657 26.86 111.709 26.86Z" fill="white"/>
<path d="M34 29.178L34 10.224L26.473 10.224L26.473 20.598L1.825 20.598L1.825 29.178L34 29.178Z" fill="#01A5AF"/>
</svg>
